{"accessors":[{"name":"4326_1.1-Mesh_0_positions","componentType":5126,"count":42,"min":[-169.97274780273438,-228.37973022460938,-293.8136901855469],"max":[270.913330078125,266.7008361816406,293.8021545410156],"type":"VEC3","bufferView":0,"byteOffset":0},{"name":"4326_1.1-Mesh_0_indices","componentType":5123,"count":240,"min":[0],"max":[41],"type":"SCALAR","bufferView":1,"byteOffset":0}],"asset":{"generator":"obj2gltf","version":"2.0"},"buffers":[{"name":"input","byteLength":984,"uri":"data:application/octet-stream;base64,"}],"bufferViews":[{"name":"bufferView_0","buffer":0,"byteLength":504,"byteOffset":0,"byteStride":12,"target":34962},{"name":"bufferView_1","buffer":0,"byteLength":480,"byteOffset":504,"target":34963}],"materials":[{"name":"default","pbrMetallicRoughness":{"baseColorFactor":[0.5,0.5,0.5,1],"metallicFactor":0,"roughnessFactor":1},"emissiveFactor":[0,0,0],"alphaMode":"OPAQUE","doubleSided":false}],"meshes":[{"name":"4326_1.1-Mesh","primitives":[{"attributes":{"POSITION":0},"indices":1,"material":0,"mode":4}]}],"nodes":[{"name":"4326_1.1","mesh":0}],"scene":0,"scenes":[{"nodes":[0]}]}
